<svg width="400" height="400" viewBox="0 0 400 400" fill="none" xmlns="http://www.w3.org/2000/svg">
<path d="M299.193 333.026C299.193 330.326 299.393 330.326 299.393 327.526C299.393 324.826 301.693 324.826 301.693 322.026C301.693 319.326 299.093 319.326 299.093 316.526C299.093 313.826 299.093 313.826 299.093 311.026C299.093 308.526 299.093 308.226 299.093 306.126C299.393 305.826 299.593 305.626 299.893 305.326C300.593 304.626 301.093 303.526 301.293 301.926C301.293 301.826 301.293 301.826 301.293 301.726C301.493 301.326 301.693 300.826 301.693 300.126C301.693 299.526 298.593 299.026 295.593 298.826C295.093 298.826 294.593 298.726 294.093 298.826C294.093 298.826 295.393 298.726 296.593 298.226C297.893 297.826 299.093 297.026 298.893 296.326C298.593 293.426 298.093 292.426 297.893 290.826C297.693 289.326 297.293 288.126 295.693 286.126C294.093 284.126 292.993 283.826 291.993 283.126C290.993 282.526 289.993 282.026 288.193 280.826C284.693 278.426 285.093 277.926 281.393 275.926C277.693 274.326 277.393 275.126 273.693 273.726C269.993 272.526 269.893 272.626 266.193 271.626C262.493 270.626 262.793 269.526 259.093 268.626C255.393 267.826 255.293 268.026 251.593 267.326C247.893 266.626 247.893 266.426 244.193 265.826C240.493 265.226 240.493 265.026 236.793 264.426C232.993 264.026 232.893 265.426 229.093 265.026C225.393 264.726 225.293 264.926 221.593 264.626C217.893 264.326 217.893 263.726 214.193 263.526C212.093 263.426 211.093 263.426 210.093 263.526C210.193 264.726 210.293 265.726 210.893 266.026C210.893 267.026 210.393 267.326 211.293 267.626C210.893 269.726 210.893 272.326 210.393 274.326C210.693 275.326 210.793 276.426 211.893 276.226C211.193 276.926 210.393 279.326 212.093 279.526C212.093 280.526 210.993 280.426 211.193 281.626C211.493 283.026 211.593 285.026 211.293 286.526C211.093 288.126 210.793 289.626 210.393 291.626C208.293 294.826 206.093 298.326 202.593 301.126C199.193 304.026 194.393 305.826 189.693 305.126C188.193 305.226 186.593 305.026 185.693 305.326C183.693 304.426 179.293 302.626 177.293 301.526C175.093 299.726 174.393 298.326 172.193 296.826C171.693 294.526 168.293 291.126 169.493 289.726C168.993 288.326 168.093 288.226 167.893 286.526C169.093 285.426 168.893 283.126 168.393 281.426C169.393 279.926 168.493 276.526 169.393 275.126C169.093 273.926 168.693 272.726 168.393 271.526C168.493 269.226 168.093 267.426 167.993 265.626C165.393 265.626 164.793 264.526 161.493 264.926C157.793 265.526 157.693 265.026 153.893 265.626C150.193 266.326 150.193 266.326 146.393 267.026C142.693 267.826 142.593 267.426 138.793 268.326C135.093 269.326 135.493 270.926 131.793 272.026C128.093 273.326 128.293 273.726 124.593 275.026C120.993 276.626 121.193 277.026 117.693 278.826C114.193 280.626 114.093 280.626 110.693 282.926C107.393 285.726 106.593 284.526 103.493 288.426C101.893 290.226 101.493 291.826 100.793 293.026C100.093 294.126 99.8933 295.826 99.4933 298.726C99.6933 300.226 99.7933 301.326 99.8933 302.226C99.3933 303.126 98.6932 303.826 98.6932 305.426C98.6932 308.126 99.4933 308.126 99.4933 310.926C99.4933 313.626 98.5933 313.626 98.5933 316.426C98.5933 319.226 99.5933 319.126 99.5933 321.926C99.5933 324.726 99.8933 324.626 99.8933 327.426C99.8933 330.126 98.8933 330.126 98.8933 332.926C98.8933 335.626 99.1932 335.626 99.1932 338.426C99.0932 341.126 99.0933 341.126 99.0933 343.926C99.0933 346.726 98.7933 346.526 98.8933 349.426C99.4933 354.126 100.893 353.726 102.593 357.126C103.493 358.926 104.193 359.326 104.793 360.026C105.393 360.626 105.993 361.426 107.193 362.426C109.593 364.526 109.193 365.126 111.793 366.826C114.393 368.526 114.593 368.226 117.193 369.626C119.793 371.026 119.893 370.826 122.593 371.926C125.293 373.026 125.393 372.826 127.993 373.826C130.693 374.726 130.393 375.726 133.093 376.526C135.793 377.326 135.793 377.626 138.493 378.326C141.293 379.026 141.493 377.826 144.293 378.426C146.993 379.126 146.693 380.426 149.493 381.026C152.293 381.526 152.193 382.026 154.993 382.426C157.793 382.926 157.793 382.926 160.593 383.326C163.393 383.726 163.293 384.126 166.093 384.526C168.893 384.826 169.093 383.226 171.793 383.526C174.593 383.726 174.593 383.326 177.393 383.526C180.193 383.726 180.193 383.126 182.993 383.226C185.793 383.426 185.793 383.426 188.493 383.526C191.293 383.626 191.193 384.626 193.993 384.726C196.793 384.726 196.793 385.026 199.593 385.026C202.393 385.026 202.393 385.626 205.193 385.526C207.993 385.426 207.993 385.926 210.793 385.726C213.593 385.526 213.593 385.526 216.393 385.326C219.193 385.226 219.193 384.926 221.993 384.626C224.793 384.326 224.793 384.326 227.593 384.026C230.393 383.726 230.393 384.226 233.193 383.926C235.993 383.626 235.793 381.926 238.493 381.526C241.293 381.126 241.293 381.126 243.993 380.826C246.793 380.426 247.093 382.526 249.893 381.926C252.693 381.326 252.293 379.526 254.993 378.826C257.693 378.226 257.993 379.426 260.793 378.726C263.593 377.926 263.293 376.926 265.993 376.126C268.693 375.326 268.393 374.126 271.093 373.226C273.793 372.326 274.293 373.526 276.993 372.426C279.693 371.226 279.193 370.226 281.793 368.826C284.393 367.426 284.593 367.926 287.193 366.226C289.793 364.626 289.793 364.526 292.193 362.426C293.393 361.426 294.293 360.926 295.293 360.526C296.193 360.026 297.293 359.826 298.293 357.926C300.193 354.126 300.193 354.026 300.793 349.326C300.893 346.326 301.393 346.526 301.393 343.726C301.393 341.026 298.393 341.026 298.393 338.226C298.793 335.726 299.193 335.726 299.193 333.026ZM286.993 338.526C286.993 341.226 287.293 341.226 287.293 344.026C287.293 346.726 288.093 346.926 288.093 349.326C287.893 349.826 288.193 350.126 288.493 350.526C288.693 350.926 288.693 351.426 288.393 352.226C288.093 353.026 287.393 353.326 286.993 353.626C286.493 353.926 286.293 354.226 285.393 354.926C283.693 356.326 283.493 355.926 281.493 357.226C279.593 358.526 278.993 357.626 276.893 358.726C274.793 359.826 274.593 359.526 272.293 360.526C269.993 361.526 269.893 361.126 267.393 361.926C264.993 362.726 265.793 365.126 263.193 365.826C260.693 366.526 259.993 364.226 257.493 364.926C254.993 365.626 254.993 365.626 252.493 366.226C249.993 366.826 250.493 369.226 247.893 369.826C245.293 370.326 245.193 369.626 242.493 370.026C239.893 370.426 239.793 370.126 237.193 370.526C234.593 370.926 234.593 371.426 231.993 371.826C229.293 372.126 229.193 370.726 226.593 370.926C223.993 371.126 223.993 371.926 221.393 372.126C218.693 372.326 218.693 371.226 215.993 371.326C213.293 371.426 213.393 372.926 210.693 373.026C207.993 373.126 207.993 373.726 205.393 373.826C202.693 373.926 202.693 373.926 199.993 374.026C197.293 374.026 197.293 373.426 194.593 373.426C191.893 373.326 191.893 372.326 189.293 372.226C186.593 372.126 186.593 373.926 183.893 373.826C181.193 373.726 181.193 373.626 178.593 373.426C175.893 373.226 175.993 372.326 173.293 372.126C170.593 371.826 170.693 371.726 167.993 371.426C165.393 371.126 165.493 370.126 162.893 369.726C160.293 369.326 160.393 368.426 157.793 368.026C155.193 367.626 154.793 370.026 152.193 369.526C149.593 369.026 149.693 368.526 147.093 367.826C144.493 367.226 144.693 366.526 142.193 365.926C139.693 365.226 139.693 365.126 137.193 364.426C134.693 363.726 134.793 363.326 132.393 362.526C129.993 361.726 129.293 363.526 126.893 362.526C124.493 361.526 125.593 359.226 123.493 358.026C121.393 356.926 121.093 357.426 119.193 356.126C117.293 354.926 117.593 354.626 116.093 353.326C115.193 352.726 115.193 352.426 114.793 352.126C114.593 351.826 113.893 351.526 113.793 351.026C113.593 350.526 112.993 350.426 112.593 350.226C112.193 350.126 111.793 349.926 111.593 349.326C111.593 346.726 113.093 346.626 113.093 343.926C113.093 341.226 112.493 341.226 112.493 338.426C112.493 335.726 110.993 335.726 110.993 332.926C110.993 330.226 110.793 330.226 110.793 327.426C110.793 324.726 110.993 324.726 110.993 321.926C110.993 319.726 110.993 319.226 111.093 317.626C113.193 318.926 113.793 319.226 116.793 320.726C120.493 322.626 120.593 322.126 124.293 323.726C127.993 325.126 127.993 324.926 131.693 326.226C135.393 327.326 135.293 327.826 138.993 328.826C142.693 329.726 143.093 328.026 146.793 328.826C150.493 329.626 150.493 329.626 154.193 330.426C157.893 331.026 157.593 333.126 161.293 333.726C165.093 334.226 165.293 332.226 168.993 332.626C172.693 333.126 172.593 334.226 176.393 334.526C180.193 334.826 180.193 333.826 183.993 333.926C187.793 334.126 187.793 332.926 191.493 333.026C195.193 333.126 195.193 334.426 198.993 334.426C202.793 334.426 202.693 333.126 206.493 333.026C210.193 333.026 210.193 333.326 213.993 333.226C217.693 333.026 217.693 333.126 221.493 332.826C225.193 332.526 225.393 334.426 229.193 334.126C232.993 333.726 232.993 333.726 236.693 333.226C240.493 332.726 240.493 333.226 244.293 332.726C248.093 332.126 247.493 329.126 251.193 328.426C254.893 327.726 254.993 328.026 258.693 327.126C262.393 326.326 262.393 326.326 266.093 325.326C269.793 324.326 270.493 326.326 274.193 325.026C277.893 323.626 276.893 321.126 280.493 319.626C283.993 317.726 284.093 317.926 287.493 315.626C287.993 315.326 288.393 315.126 288.693 314.826C288.693 315.226 288.793 315.626 288.793 316.226C288.793 318.926 287.993 318.926 287.993 321.726C287.993 324.526 287.593 324.426 287.593 327.226C287.593 330.026 286.893 329.926 286.893 332.726C286.893 335.726 286.893 335.726 286.993 338.526Z" fill="#3374FF"/>
<path d="M60.9935 281.326C60.6935 281.026 61.0935 280.126 60.7935 279.826C60.4935 279.526 60.2935 279.926 59.9935 279.626C59.6935 279.326 59.7935 279.126 59.4935 278.826C59.1935 278.526 58.6935 279.426 58.4935 279.126C58.1935 278.826 58.3935 278.326 58.0935 278.026C57.7935 277.726 57.9934 277.326 57.6934 277.026C57.3934 276.726 56.9934 277.526 56.6934 277.226C56.3934 276.926 56.8935 275.926 56.4935 275.726C56.1935 275.426 56.1935 275.326 55.8935 275.126C55.4935 274.926 55.3935 275.126 54.9935 275.026C54.5935 274.826 54.4934 275.026 54.1934 274.826C53.7934 274.626 53.7935 274.626 53.4935 274.426C53.0935 274.226 53.0934 274.226 52.6934 274.126C52.2934 273.926 52.6935 273.226 52.2935 273.026C52.0935 272.926 51.9935 273.026 51.7935 273.226C51.7935 273.226 51.6935 273.126 51.5935 273.126C51.1935 272.926 51.0934 273.126 50.6934 273.026C50.2934 272.826 50.1935 273.026 49.8935 272.826C49.5935 272.626 49.4935 272.626 49.2935 272.526C49.2935 272.226 49.3934 271.926 49.1934 271.826C48.7934 271.626 48.5935 272.026 48.2935 271.926C48.1935 271.626 48.3935 271.126 48.0935 271.026C47.6935 270.826 47.2935 271.626 46.9935 271.426C46.5935 271.226 46.4934 271.426 46.1934 271.226C45.9934 271.126 45.8934 271.226 45.6934 271.226C45.6934 270.926 45.7935 270.726 45.5935 270.726C45.4935 270.726 45.2934 270.826 45.1934 270.926C45.1934 270.526 45.3934 269.826 45.1934 269.626C44.7934 269.426 44.5934 269.826 44.1934 269.726C43.7934 269.626 43.7935 269.726 43.3935 269.626C42.9935 269.626 42.8935 269.726 42.4935 269.726H42.3935C42.3935 269.326 42.5935 268.826 42.2935 268.626C41.9935 268.426 41.9934 268.226 41.6934 268.026C41.2934 267.826 41.1935 268.026 40.7935 267.926C40.3935 267.726 40.2935 267.926 39.9935 267.726C39.5935 267.526 39.5935 267.526 39.2935 267.326C38.8935 267.126 38.8935 267.126 38.4935 267.026C38.0935 266.826 38.4935 266.126 38.0935 265.926C37.8935 265.826 37.7935 265.926 37.5935 266.126C37.5935 266.126 37.4935 266.026 37.3935 266.026C36.9935 265.826 36.8935 266.026 36.4935 265.926C36.0935 265.726 35.9934 265.926 35.6934 265.726C35.3934 265.526 35.2935 265.526 35.0935 265.426C35.0935 265.126 35.1935 264.826 34.9935 264.726C34.5935 264.526 34.3935 264.926 34.0935 264.826C33.9935 264.526 34.1935 264.026 33.8935 263.926C33.4935 263.726 33.0935 264.526 32.7935 264.326C32.3935 264.126 32.2935 264.326 31.9935 264.126C31.7935 264.026 31.6935 264.126 31.4935 264.126C31.4935 263.826 31.5935 263.626 31.3935 263.626C31.2935 263.626 31.0935 263.726 30.9935 263.826C30.9935 263.426 31.1935 262.726 30.9935 262.526C30.5935 262.326 30.3935 262.726 29.9935 262.626C29.5935 262.526 29.5934 262.626 29.1934 262.526C28.7934 262.526 28.6935 262.626 28.2935 262.626C27.8935 262.626 27.7935 262.726 27.3935 262.726C26.9935 262.726 27.5934 261.526 27.1934 261.426C26.7934 261.426 26.2935 262.426 25.8935 262.426C25.4935 262.426 25.5934 262.226 25.1934 262.126C24.7934 262.126 24.7935 262.226 24.3935 262.126C23.9935 262.126 24.0934 261.826 23.6934 261.826C23.2934 261.826 23.5934 261.126 23.1934 261.026C22.7934 261.026 22.2935 261.926 21.8935 261.926C21.4935 261.926 21.4935 261.826 21.0935 261.726C20.9935 261.726 20.6934 262.326 20.1934 263.326C20.1934 263.326 19.0934 265.726 19.1934 265.726C19.4934 266.026 19.5935 265.726 19.8935 266.026C20.1935 266.326 20.6935 265.226 20.9935 265.526C21.2935 265.826 20.8934 266.526 21.1934 266.826C21.4934 267.126 21.6935 266.726 21.9935 266.926C22.2935 267.226 22.0935 267.526 22.3935 267.826C22.6935 268.126 22.2935 269.026 22.4935 269.326C22.7935 269.626 22.7935 269.626 23.0935 269.926C23.3935 270.226 23.5935 269.826 23.7935 270.126C24.0935 270.426 23.9935 270.526 24.2935 270.826C24.5935 271.126 25.0935 270.026 25.3935 270.326C25.6935 270.626 25.2934 271.326 25.6934 271.526C25.9934 271.726 25.6935 272.426 26.0935 272.626C26.4935 272.826 26.8935 271.926 27.2935 272.126C27.6935 272.326 27.2934 273.026 27.6934 273.226C27.8934 273.326 28.1935 272.926 28.4935 272.726C28.4935 272.826 28.5934 272.826 28.6934 272.926C28.7934 273.026 28.8935 272.926 29.0935 272.826C29.0935 273.226 28.8935 274.026 29.0935 274.126C29.4935 274.326 29.7934 273.626 30.1934 273.726C30.2934 274.026 30.1935 274.526 30.4935 274.626H30.5935C30.5935 274.626 30.5934 274.626 30.6934 274.726C30.8934 274.826 31.2935 274.426 31.5935 274.126H31.6934C32.0934 274.326 31.6935 275.026 32.0935 275.226C32.3935 275.326 32.6935 274.926 32.9935 274.726C32.8935 275.126 32.7935 275.626 32.9935 275.726C33.0935 275.826 33.1935 275.726 33.2935 275.726C33.2935 275.926 33.2935 276.126 33.3935 276.226C33.6935 276.326 33.9935 275.926 34.2935 275.826C34.2935 276.126 34.2935 276.426 34.4935 276.426C34.5935 276.426 34.6935 276.426 34.7935 276.426C34.7935 276.626 34.7935 276.726 34.9935 276.826C35.1935 276.926 35.3935 276.626 35.5935 276.426C35.7935 276.426 35.8935 276.326 36.2935 276.426C36.3935 276.426 36.5935 276.326 36.7935 276.126C36.8935 276.126 36.9935 276.126 37.0935 276.226C37.0935 276.226 37.0934 276.326 37.1934 276.326C37.1934 276.426 37.2935 276.426 37.2935 276.426C37.2935 276.826 36.9935 277.626 37.2935 277.826C37.6935 278.026 38.0935 277.226 38.4935 277.326C38.8935 277.426 38.3935 278.426 38.7935 278.526C39.1935 278.526 39.2934 278.526 39.6934 278.526C39.9934 278.526 40.0935 278.526 40.2935 278.526C40.2935 278.526 40.2935 278.526 40.3935 278.626C40.6935 278.826 40.3935 279.526 40.7935 279.726C41.1935 279.926 41.5935 279.026 41.9935 279.226C42.3935 279.426 41.9935 280.126 42.3935 280.326C42.5935 280.426 42.8934 280.026 43.1934 279.826C43.1934 279.926 43.2935 279.926 43.3935 280.026C43.4935 280.126 43.5935 280.026 43.7935 279.926C43.8935 280.326 43.5935 281.126 43.7935 281.226C44.1935 281.426 44.4935 280.726 44.8935 280.826C44.9935 281.126 44.8934 281.626 45.1934 281.726H45.2935C45.2935 281.726 45.2935 281.726 45.3935 281.826C45.5935 281.926 45.9935 281.526 46.2935 281.226H46.3935C46.7935 281.426 46.3935 282.126 46.7935 282.326C47.0935 282.426 47.3934 282.026 47.6934 281.826C47.5934 282.226 47.4934 282.726 47.6934 282.826C47.7934 282.926 47.8935 282.826 47.9935 282.826C47.9935 283.026 47.9935 283.226 48.0935 283.326C48.3935 283.426 48.6935 283.026 48.9935 282.926C48.9935 283.226 48.9934 283.526 49.1934 283.526C49.2934 283.526 49.3935 283.526 49.4935 283.526C49.4935 283.726 49.4934 283.826 49.6934 283.926C49.8934 284.026 50.0935 283.726 50.2935 283.526C50.4935 283.526 50.5935 283.426 50.9935 283.526C51.0935 283.526 51.2935 283.426 51.4935 283.226C51.5935 283.226 51.6935 283.226 51.7935 283.326C52.1935 283.526 51.5935 284.726 51.9935 284.926C52.3935 285.126 52.7934 284.326 53.1934 284.426C53.5934 284.526 53.0935 285.526 53.4935 285.626C53.8935 285.626 53.9935 285.626 54.3935 285.626C54.7935 285.626 54.8935 285.526 55.2935 285.626C55.6935 285.626 56.2934 284.526 56.6934 284.526C57.0934 284.526 57.1935 284.526 57.5935 284.526C57.9935 284.526 57.9935 284.526 58.4935 284.626C58.8935 284.626 58.3935 285.726 58.8935 285.726C59.2935 285.726 59.4935 285.426 59.8935 285.426C60.2935 285.426 60.0935 286.026 60.4935 286.026C60.8935 286.026 60.9935 285.926 61.3935 285.926C61.4935 285.926 62.5935 283.726 62.5935 283.726C63.0935 282.726 63.7934 281.326 63.6934 281.226C63.3934 280.926 63.3935 281.026 63.0935 280.626C61.7935 280.626 61.2935 281.626 60.9935 281.326Z" fill="#3374FF"/>
<path d="M96.1933 238.626C96.0933 238.326 96.6934 237.626 96.5934 237.326C96.4934 237.026 96.1934 237.326 96.0934 237.126C95.9934 236.826 96.0934 236.726 95.9934 236.426C95.8934 236.126 95.1934 236.926 95.0934 236.626C94.9934 236.326 95.2933 235.926 95.1933 235.626C95.0933 235.326 95.2933 235.026 95.1933 234.726C95.0933 234.426 94.4934 235.126 94.3934 234.826C94.2934 234.526 94.9933 233.726 94.7933 233.526C94.5933 233.326 94.6934 233.126 94.4934 232.926C94.2934 232.726 94.0934 232.926 93.8934 232.726C93.6934 232.526 93.5934 232.726 93.3934 232.526C93.1934 232.326 93.1934 232.326 92.9934 232.126C92.7934 231.926 92.7934 231.926 92.5934 231.826C92.3934 231.626 92.8933 231.026 92.6933 230.826C92.5933 230.726 92.3933 230.826 92.2933 230.926L92.1933 230.826C91.9933 230.626 91.7934 230.826 91.5934 230.626C91.3934 230.426 91.2934 230.626 91.0934 230.426C90.8934 230.226 90.8933 230.226 90.6933 230.126C90.7933 229.826 90.9934 229.626 90.8934 229.526C90.6934 229.326 90.3933 229.626 90.1933 229.526C90.1933 229.226 90.4933 228.826 90.2933 228.726C90.0933 228.526 89.4933 229.226 89.2933 229.026C89.0933 228.826 88.8933 229.026 88.6933 228.826C88.5933 228.726 88.4933 228.726 88.2933 228.826C88.3933 228.626 88.4934 228.326 88.3934 228.326C88.2934 228.326 88.1934 228.426 87.9934 228.526C88.0934 228.126 88.5934 227.526 88.3934 227.426C88.1934 227.226 87.8934 227.626 87.5934 227.426C87.3934 227.326 87.2934 227.426 86.9934 227.326C86.6934 227.226 86.5933 227.426 86.2933 227.326H86.1933C86.3933 226.926 86.5934 226.526 86.4934 226.326C86.2934 226.126 86.3933 225.926 86.1933 225.726C85.9933 225.526 85.7934 225.726 85.5934 225.526C85.3934 225.326 85.2934 225.526 85.0934 225.326C84.8934 225.126 84.8933 225.126 84.6933 224.926C84.4933 224.726 84.4933 224.726 84.2933 224.626C84.0933 224.426 84.5934 223.826 84.3934 223.626C84.2934 223.526 84.0934 223.626 83.9934 223.726L83.8934 223.626C83.6934 223.426 83.4933 223.626 83.2933 223.426C83.0933 223.226 82.9933 223.426 82.7933 223.226C82.5933 223.026 82.5934 223.026 82.3934 222.926C82.4934 222.626 82.6934 222.426 82.5934 222.326C82.3934 222.126 82.0934 222.426 81.8934 222.326C81.8934 222.026 82.1934 221.626 81.9934 221.526C81.7934 221.326 81.1934 222.026 80.9934 221.826C80.7934 221.626 80.5934 221.826 80.3934 221.626C80.2934 221.526 80.1934 221.526 79.9934 221.626C80.0934 221.426 80.1934 221.126 80.0934 221.126C79.9934 221.126 79.8933 221.226 79.6933 221.326C79.7933 220.926 80.2934 220.326 80.0934 220.226C79.8934 220.026 79.5933 220.426 79.2933 220.226C79.0933 220.126 78.9933 220.226 78.6933 220.126C78.3933 220.026 78.2934 220.226 77.9934 220.126C77.6934 220.026 77.5933 220.226 77.2933 220.126C76.9933 220.026 77.8934 219.026 77.5934 219.026C77.2934 218.926 76.4933 219.926 76.2933 219.826C75.9933 219.726 76.0934 219.626 75.8934 219.526C75.5934 219.426 75.4933 219.526 75.2933 219.526C74.9933 219.426 75.1934 219.326 74.8934 219.226C74.5934 219.126 75.0933 218.626 74.7933 218.526C74.4933 218.426 73.7934 219.226 73.5934 219.226C73.3934 219.226 73.3934 219.126 73.0934 219.026C72.9934 219.026 72.5934 219.526 71.8934 220.326C71.8934 220.326 70.1933 222.326 70.2933 222.426C70.3933 222.726 70.5933 222.426 70.6933 222.726C70.7933 223.026 71.5933 222.126 71.6933 222.326C71.7933 222.626 71.2934 223.226 71.3934 223.526C71.4934 223.826 71.7934 223.426 71.8934 223.726C71.9934 224.026 71.7934 224.226 71.8934 224.526C71.9934 224.826 71.3934 225.526 71.4934 225.826C71.5934 226.126 71.5933 226.026 71.6933 226.326C71.7933 226.626 72.0933 226.326 72.1933 226.526C72.2933 226.826 72.1933 226.926 72.2933 227.226C72.3933 227.526 73.1933 226.526 73.2933 226.826C73.3933 227.126 72.8934 227.726 73.0934 227.926C73.2934 228.126 72.7934 228.726 72.9934 228.926C73.1934 229.126 73.8934 228.326 74.0934 228.526C74.2934 228.726 73.7934 229.326 73.9934 229.526C74.0934 229.626 74.4933 229.326 74.7933 229.126C74.7933 229.226 74.7933 229.226 74.7933 229.326C74.7933 229.426 74.9934 229.326 75.0934 229.226C74.9934 229.626 74.4933 230.226 74.6933 230.426C74.8933 230.626 75.3934 230.026 75.5934 230.126C75.5934 230.426 75.2934 230.826 75.4934 230.926H75.5934C75.5934 230.926 75.5934 230.926 75.5934 231.026C75.6934 231.126 76.1934 230.726 76.4934 230.526C76.4934 230.526 76.4934 230.526 76.5934 230.526C76.7934 230.726 76.2934 231.326 76.4934 231.526C76.6934 231.626 77.0933 231.226 77.2933 231.126C77.0933 231.526 76.7934 231.926 76.9934 232.026C77.0934 232.126 77.1933 232.026 77.2933 232.026C77.1933 232.226 77.0933 232.426 77.1933 232.426C77.3933 232.526 77.6934 232.226 77.9934 232.126C77.8934 232.326 77.7934 232.626 77.8934 232.626C77.9934 232.626 77.9934 232.626 78.0934 232.626C78.0934 232.826 77.9934 232.926 78.0934 233.026C78.1934 233.126 78.4933 232.926 78.6933 232.726C78.8933 232.726 78.9933 232.726 79.1933 232.726C79.2933 232.726 79.4934 232.626 79.5934 232.526C79.6934 232.526 79.6933 232.526 79.7933 232.626V232.726C79.7933 232.826 79.7933 232.826 79.7933 232.826C79.6933 233.226 79.1933 233.826 79.2933 234.026C79.4933 234.226 80.0933 233.526 80.2933 233.626C80.5933 233.726 79.7934 234.626 80.0934 234.626C80.3934 234.726 80.3933 234.626 80.7933 234.726C80.9933 234.726 81.0933 234.726 81.1933 234.726C81.3933 234.926 80.8934 235.526 81.0934 235.726C81.2934 235.926 81.9933 235.126 82.1933 235.326C82.3933 235.526 81.8934 236.126 82.0934 236.326C82.1934 236.426 82.5934 236.126 82.8934 235.926C82.8934 236.026 82.8934 236.026 82.8934 236.126C82.8934 236.226 83.0933 236.126 83.1933 236.026C83.0933 236.426 82.5933 237.026 82.7933 237.226C82.9933 237.426 83.4933 236.826 83.6933 236.926C83.6933 237.226 83.3934 237.626 83.5934 237.726H83.6933C83.6933 237.726 83.6933 237.726 83.6933 237.826C83.7933 237.926 84.2934 237.526 84.5934 237.326C84.5934 237.326 84.5933 237.326 84.6933 237.326C84.8933 237.526 84.3934 238.126 84.5934 238.326C84.7934 238.426 85.1934 238.026 85.3934 237.926C85.1934 238.326 84.8934 238.726 85.0934 238.826C85.1934 238.926 85.2934 238.826 85.3934 238.826C85.2934 239.026 85.1933 239.226 85.2933 239.226C85.4933 239.326 85.7934 239.026 86.0934 238.926C85.9934 239.126 85.8934 239.426 85.9934 239.426C86.0934 239.426 86.0933 239.426 86.1933 239.426C86.1933 239.626 86.0933 239.726 86.1933 239.826C86.2933 239.926 86.5933 239.726 86.7933 239.526C86.9933 239.526 87.0933 239.526 87.2933 239.526C87.3933 239.526 87.5933 239.426 87.6933 239.326C87.7933 239.326 87.7934 239.326 87.8934 239.426C88.0934 239.626 87.1934 240.626 87.4934 240.826C87.7934 241.026 88.2934 240.326 88.4934 240.426C88.7934 240.526 87.9933 241.426 88.2933 241.426C88.5933 241.526 88.5934 241.426 88.9934 241.526C89.2934 241.626 89.3933 241.526 89.6933 241.526C89.9933 241.626 90.7934 240.626 91.0934 240.726C91.3934 240.826 91.4933 240.726 91.7933 240.726C92.0933 240.826 92.0934 240.826 92.3934 240.826C92.6934 240.926 91.9933 241.726 92.2933 241.826C92.5933 241.926 92.7934 241.626 93.0934 241.626C93.3934 241.726 92.9933 242.126 93.2933 242.226C93.5933 242.326 93.6934 242.126 93.9934 242.226C94.0934 242.226 95.6933 240.426 95.6933 240.426C96.3933 239.626 97.3934 238.326 97.3934 238.326C97.2934 238.026 97.1934 238.126 97.0934 237.826C97.0934 238.026 96.2933 238.926 96.1933 238.626Z" fill="#3374FF"/>
<path d="M380.194 263.826C380.194 263.826 378.994 261.426 378.894 261.526C378.494 261.626 378.694 261.926 378.294 261.926C377.894 261.926 378.394 263.026 377.994 263.126C377.594 263.126 377.294 262.426 376.794 262.526C376.394 262.526 376.594 263.026 376.194 263.026C375.794 263.026 375.694 262.826 375.294 262.826C374.894 262.826 374.494 262.026 374.094 262.026C373.694 262.026 373.694 262.126 373.294 262.126C372.894 262.126 373.094 262.526 372.694 262.526C372.294 262.526 372.194 262.426 371.794 262.426C371.394 262.426 371.894 263.626 371.494 263.626C371.094 263.626 370.794 263.026 370.394 263.126C369.994 263.226 369.694 262.526 369.294 262.726C368.894 262.926 369.394 263.826 368.994 264.026C368.594 264.226 368.294 263.426 367.894 263.626C367.694 263.726 367.794 264.226 367.794 264.526C367.694 264.526 367.694 264.526 367.594 264.526C367.494 264.526 367.394 264.726 367.394 264.926C367.094 264.726 366.594 264.026 366.294 264.126C365.894 264.326 366.294 265.026 365.894 265.226C365.594 265.126 365.294 264.726 364.994 264.826C364.994 264.826 364.894 264.826 364.894 264.926H364.794C364.594 265.026 364.694 265.626 364.794 266.026C364.794 266.026 364.794 266.026 364.694 266.126C364.294 266.326 363.994 265.526 363.594 265.726C363.294 265.826 363.494 266.426 363.494 266.726C363.194 266.426 362.894 266.026 362.694 266.126C362.594 266.226 362.494 266.326 362.494 266.426C362.294 266.226 362.194 266.126 361.994 266.226C361.694 266.326 361.894 266.826 361.794 267.126C361.594 266.926 361.394 266.726 361.194 266.926C361.094 267.026 361.094 267.126 360.994 267.126C360.894 267.026 360.694 266.926 360.494 267.026C360.294 267.126 360.394 267.426 360.394 267.826C360.294 268.026 360.194 268.126 359.994 268.426C359.894 268.526 359.894 268.726 359.894 268.926C359.794 269.026 359.794 269.026 359.694 269.126H359.594C359.494 269.126 359.494 269.126 359.394 269.126C358.994 268.926 358.594 268.126 358.294 268.326C357.894 268.526 358.294 269.326 357.994 269.526C357.694 269.726 357.194 268.726 356.894 269.026C356.594 269.326 356.594 269.426 356.294 269.726C356.094 269.926 356.094 270.026 355.994 270.226C355.994 270.226 355.994 270.226 355.894 270.226C355.494 270.326 355.194 269.626 354.794 269.826C354.394 270.026 354.894 270.926 354.494 271.126C354.094 271.326 353.794 270.526 353.394 270.726C353.194 270.826 353.294 271.326 353.294 271.626C353.194 271.626 353.194 271.626 353.094 271.626C352.994 271.626 352.894 271.826 352.894 272.026C352.594 271.826 352.094 271.126 351.794 271.226C351.394 271.426 351.794 272.126 351.394 272.326C351.094 272.226 350.794 271.826 350.494 271.926L350.394 272.026H350.294C350.094 272.126 350.194 272.726 350.294 273.126C350.294 273.126 350.294 273.126 350.194 273.226C349.794 273.426 349.494 272.626 349.094 272.826C348.794 272.926 348.994 273.526 348.994 273.826C348.694 273.526 348.394 273.126 348.194 273.226C348.094 273.326 347.994 273.426 347.994 273.526C347.794 273.326 347.694 273.226 347.494 273.326C347.194 273.426 347.394 273.926 347.294 274.226C347.094 274.026 346.894 273.826 346.694 274.026C346.594 274.126 346.594 274.226 346.494 274.226C346.394 274.126 346.194 274.026 345.994 274.126C345.794 274.226 345.894 274.526 345.894 274.926C345.794 275.126 345.694 275.226 345.494 275.526C345.394 275.626 345.394 275.826 345.394 276.026C345.294 276.126 345.194 276.126 345.094 276.226C344.694 276.426 344.094 275.226 343.794 275.426C343.394 275.626 343.794 276.426 343.494 276.626C343.194 276.826 342.694 275.826 342.394 276.126C342.094 276.426 342.094 276.526 341.794 276.826C341.494 277.126 341.594 277.226 341.294 277.526C340.994 277.826 341.594 278.926 341.294 279.326C340.994 279.626 340.994 279.726 340.794 280.026C340.494 280.326 340.494 280.326 340.194 280.626C339.894 280.926 339.394 279.926 339.094 280.226C338.794 280.526 338.994 280.826 338.694 281.226C338.394 281.526 338.094 281.026 337.894 281.326C337.594 281.626 337.694 281.826 337.394 282.126C337.294 282.126 338.394 284.426 338.394 284.426C338.894 285.426 339.594 286.826 339.694 286.826C340.094 286.726 340.094 286.726 340.494 286.726C340.894 286.726 340.394 285.626 340.894 285.626C341.294 285.626 341.694 286.426 342.194 286.426C342.594 286.426 342.394 286.026 342.894 285.926C343.294 285.926 343.394 286.026 343.794 286.026C344.194 286.026 343.794 285.026 344.194 285.026C344.594 285.026 344.794 285.426 345.294 285.426C345.694 285.426 345.894 285.726 346.294 285.726C346.694 285.726 346.294 284.926 346.794 284.826C347.194 284.826 347.694 285.726 348.094 285.626C348.494 285.526 348.594 285.626 348.994 285.526C349.394 285.326 349.294 285.126 349.594 284.926C349.994 284.726 349.894 284.626 350.294 284.426C350.694 284.226 350.694 284.226 350.994 284.026C351.394 283.826 351.394 283.826 351.694 283.626C352.094 283.426 352.394 284.126 352.794 284.026C352.994 283.926 352.994 283.726 352.994 283.526C353.094 283.526 353.094 283.526 353.194 283.426C353.594 283.226 353.494 283.026 353.794 282.826C354.194 282.626 354.094 282.526 354.494 282.326C354.794 282.126 354.894 282.126 355.094 282.026C355.294 282.226 355.494 282.426 355.694 282.326C356.094 282.126 355.894 281.726 356.194 281.526C356.494 281.626 356.794 282.026 357.094 281.926C357.494 281.726 357.094 280.926 357.394 280.726C357.794 280.526 357.694 280.326 357.994 280.126C358.194 280.026 358.194 279.926 358.294 279.726C358.494 279.926 358.694 280.126 358.794 279.926C358.894 279.826 358.894 279.626 358.894 279.426C359.194 279.626 359.594 280.326 359.894 280.126C360.294 279.926 360.094 279.526 360.394 279.326C360.694 279.126 360.694 279.026 360.894 278.726C361.194 278.426 361.094 278.226 361.394 278.026L361.494 277.926C361.794 278.226 362.094 278.626 362.394 278.526C362.794 278.426 362.894 278.526 363.294 278.426C363.694 278.226 363.594 278.026 363.894 277.826C364.294 277.626 364.194 277.526 364.594 277.326C364.994 277.126 364.994 277.126 365.294 276.926C365.694 276.726 365.694 276.726 365.994 276.526C366.394 276.326 366.694 277.126 367.094 276.926C367.294 276.826 367.294 276.626 367.294 276.426C367.394 276.426 367.394 276.426 367.494 276.326C367.894 276.126 367.794 275.926 368.094 275.726C368.494 275.526 368.394 275.426 368.794 275.226C369.094 275.026 369.194 275.026 369.394 274.926C369.594 275.126 369.794 275.326 369.994 275.226C370.394 275.026 370.194 274.626 370.494 274.426C370.794 274.526 371.094 274.926 371.394 274.826C371.794 274.626 371.394 273.826 371.694 273.626C372.094 273.426 371.994 273.226 372.294 273.026C372.494 272.926 372.494 272.826 372.594 272.626C372.794 272.826 372.994 273.026 373.094 272.826C373.194 272.726 373.194 272.526 373.194 272.326C373.494 272.526 373.894 273.226 374.194 273.026C374.594 272.826 374.394 272.426 374.694 272.226C374.994 272.026 374.994 271.926 375.194 271.626C375.494 271.326 375.394 271.126 375.694 270.826C375.994 270.526 375.894 270.326 376.194 270.126C376.494 269.826 377.094 271.026 377.294 270.726C377.594 270.426 377.094 269.326 377.294 269.026C377.594 268.726 377.694 268.926 377.994 268.626C378.294 268.326 378.194 268.226 378.494 267.926C378.794 267.626 378.894 267.826 379.194 267.526C379.494 267.226 379.794 267.926 380.094 267.626C380.394 267.326 379.894 266.426 380.194 266.126C380.494 265.826 380.494 265.926 380.794 265.626C380.894 265.526 380.594 264.826 380.194 263.826Z" fill="#3374FF"/>
<path d="M329.594 222.226C329.694 222.226 329.194 221.626 328.494 220.826C328.494 220.826 326.794 218.826 326.694 218.826C326.394 218.926 326.594 219.126 326.394 219.226C326.194 219.326 326.894 220.226 326.594 220.226C326.294 220.326 325.794 219.626 325.494 219.726C325.194 219.826 325.494 220.126 325.194 220.226C324.894 220.326 324.694 220.026 324.394 220.126C324.094 220.226 323.494 219.426 323.194 219.526C322.894 219.626 322.894 219.626 322.594 219.626C322.294 219.726 322.594 220.026 322.294 220.026C321.994 220.126 321.894 219.926 321.594 220.026C321.294 220.126 322.094 221.026 321.794 221.126C321.494 221.226 320.994 220.626 320.794 220.726C320.494 220.826 320.094 220.326 319.794 220.426C319.594 220.626 320.194 221.326 319.994 221.526C319.794 221.726 319.194 221.026 318.994 221.226C318.894 221.326 319.094 221.726 319.194 222.026C319.094 222.026 319.094 222.026 318.994 222.026C318.894 222.026 318.894 222.226 318.994 222.326C318.694 222.126 318.094 221.526 317.894 221.726C317.694 221.926 318.194 222.526 317.994 222.726C317.694 222.626 317.394 222.326 317.194 222.426C317.194 222.426 317.194 222.426 317.194 222.526C317.194 222.526 317.194 222.526 317.094 222.526C316.994 222.626 317.294 223.126 317.494 223.526C317.494 223.526 317.494 223.526 317.494 223.626C317.294 223.826 316.694 223.126 316.494 223.326C316.294 223.426 316.694 223.926 316.794 224.226C316.494 224.026 316.094 223.626 315.994 223.726C315.894 223.826 315.894 223.926 315.994 224.026C315.794 223.926 315.694 223.826 315.594 223.826C315.394 223.926 315.694 224.426 315.694 224.626C315.494 224.426 315.294 224.326 315.194 224.426C315.194 224.526 315.194 224.526 315.094 224.626C314.994 224.526 314.794 224.526 314.694 224.526C314.594 224.626 314.694 224.926 314.894 225.226C314.894 225.426 314.894 225.526 314.794 225.726C314.794 225.826 314.794 226.026 314.894 226.226C314.894 226.226 314.794 226.326 314.794 226.426H314.694C314.594 226.426 314.594 226.426 314.594 226.426C314.294 226.226 313.694 225.626 313.494 225.726C313.294 225.926 313.794 226.626 313.694 226.826C313.494 227.026 312.794 226.226 312.694 226.526C312.594 226.826 312.594 226.826 312.494 227.126C312.394 227.326 312.394 227.426 312.394 227.526C312.394 227.526 312.394 227.526 312.294 227.526C311.994 227.626 311.594 227.126 311.294 227.226C311.094 227.426 311.694 228.126 311.494 228.326C311.294 228.526 310.694 227.826 310.494 228.026C310.394 228.126 310.594 228.526 310.694 228.826C310.594 228.826 310.594 228.826 310.494 228.826C310.394 228.826 310.394 229.026 310.494 229.126C310.194 228.926 309.594 228.326 309.394 228.526C309.194 228.726 309.694 229.326 309.494 229.526C309.194 229.426 308.894 229.126 308.694 229.226C308.694 229.226 308.694 229.226 308.694 229.326C308.694 229.326 308.694 229.326 308.594 229.326C308.494 229.426 308.794 229.926 308.994 230.326C308.994 230.326 308.994 230.326 308.994 230.426C308.794 230.626 308.194 229.926 307.994 230.126C307.794 230.226 308.194 230.726 308.294 231.026C307.994 230.826 307.594 230.426 307.494 230.526C307.394 230.626 307.394 230.626 307.494 230.826C307.294 230.726 307.194 230.626 307.094 230.626C306.894 230.726 307.194 231.226 307.194 231.426C306.994 231.226 306.794 231.126 306.694 231.226C306.694 231.326 306.694 231.326 306.594 231.426C306.494 231.326 306.294 231.326 306.194 231.326C306.094 231.426 306.194 231.726 306.394 232.026C306.394 232.226 306.394 232.326 306.294 232.526C306.294 232.626 306.294 232.826 306.394 233.026C306.394 233.126 306.294 233.126 306.194 233.226C305.994 233.426 305.094 232.426 304.894 232.526C304.694 232.726 305.194 233.426 305.094 233.626C304.894 233.826 304.194 233.026 304.094 233.326C303.994 233.626 303.994 233.626 303.894 233.926C303.794 234.226 303.894 234.326 303.794 234.626C303.694 234.926 304.494 235.826 304.394 236.126C304.294 236.426 304.394 236.526 304.194 236.826C304.094 237.126 304.094 237.126 303.994 237.426C303.894 237.726 303.094 236.826 302.994 237.126C302.894 237.426 303.094 237.726 302.994 238.026C302.894 238.326 302.494 237.826 302.394 238.126C302.294 238.426 302.394 238.526 302.294 238.826C302.194 238.826 303.794 240.826 303.794 240.826C304.494 241.626 305.594 242.926 305.594 242.826C305.894 242.726 305.894 242.726 306.194 242.626C306.494 242.526 305.794 241.726 306.094 241.626C306.394 241.526 306.994 242.326 307.294 242.226C307.594 242.126 307.294 241.826 307.594 241.726C307.894 241.626 307.994 241.826 308.294 241.726C308.594 241.626 307.894 240.826 308.194 240.826C308.494 240.726 308.794 241.126 309.094 241.126C309.394 241.026 309.694 241.326 309.994 241.326C310.294 241.226 309.694 240.626 309.994 240.526C310.294 240.426 310.994 241.226 311.194 241.126C311.494 241.026 311.594 241.126 311.794 240.926C311.994 240.726 311.894 240.526 312.094 240.326C312.294 240.126 312.194 240.026 312.394 239.826C312.594 239.626 312.594 239.626 312.794 239.426C312.994 239.226 312.994 239.226 313.194 239.026C313.394 238.826 313.894 239.426 314.194 239.326C314.294 239.226 314.194 239.026 314.194 238.926C314.194 238.926 314.294 238.926 314.294 238.826C314.494 238.626 314.394 238.426 314.594 238.226C314.794 238.026 314.694 237.926 314.894 237.726C315.094 237.526 315.094 237.526 315.194 237.426C315.394 237.626 315.694 237.726 315.794 237.726C315.994 237.526 315.694 237.226 315.894 237.026C316.194 237.126 316.494 237.426 316.694 237.326C316.894 237.126 316.294 236.426 316.594 236.326C316.794 236.126 316.694 235.926 316.894 235.826C316.994 235.726 316.994 235.626 316.994 235.426C317.194 235.626 317.394 235.726 317.494 235.626C317.494 235.526 317.494 235.426 317.394 235.226C317.694 235.426 318.294 235.926 318.394 235.826C318.594 235.626 318.294 235.326 318.494 235.126C318.694 234.926 318.594 234.826 318.694 234.526C318.794 234.226 318.694 234.126 318.794 233.826V233.726C319.094 233.926 319.494 234.326 319.694 234.226C319.994 234.126 320.094 234.226 320.294 234.026C320.494 233.826 320.394 233.626 320.594 233.426C320.794 233.226 320.694 233.126 320.894 232.926C321.094 232.726 321.094 232.726 321.294 232.526C321.494 232.326 321.494 232.326 321.694 232.126C321.894 231.926 322.394 232.526 322.694 232.426C322.794 232.326 322.694 232.126 322.694 232.026C322.694 232.026 322.794 232.026 322.794 231.926C322.994 231.726 322.894 231.526 323.094 231.326C323.294 231.126 323.194 231.026 323.394 230.826C323.594 230.626 323.594 230.626 323.694 230.526C323.894 230.726 324.194 230.826 324.294 230.826C324.494 230.626 324.194 230.326 324.394 230.126C324.594 230.226 324.994 230.526 325.194 230.426C325.394 230.226 324.794 229.526 325.094 229.426C325.294 229.226 325.194 229.026 325.394 228.926C325.494 228.826 325.494 228.726 325.494 228.526C325.694 228.726 325.894 228.826 325.994 228.726C325.994 228.626 325.994 228.526 325.894 228.326C326.194 228.526 326.794 229.026 326.894 228.926C327.094 228.726 326.794 228.426 326.994 228.226C327.194 228.026 327.094 227.926 327.194 227.626C327.294 227.326 327.194 227.226 327.294 226.926C327.394 226.626 327.294 226.526 327.394 226.226C327.494 225.926 328.394 226.926 328.494 226.726C328.594 226.426 327.794 225.526 327.894 225.226C327.994 224.926 328.094 225.126 328.294 224.826C328.394 224.526 328.294 224.426 328.394 224.226C328.494 223.926 328.694 224.126 328.794 223.826C328.894 223.526 329.394 224.126 329.494 223.826C329.594 223.526 328.894 222.726 328.994 222.526C329.394 222.426 329.394 222.526 329.594 222.226Z" fill="#3374FF"/>
<path d="M168.594 271.826C168.894 273.026 169.294 274.226 169.594 275.426C168.594 276.926 169.494 280.326 168.594 281.726C169.094 283.426 169.394 285.726 168.094 286.826C168.294 288.626 169.194 288.626 169.694 290.026C168.494 291.526 171.894 294.826 172.394 297.126C174.694 298.626 175.294 300.026 177.494 301.826C179.394 302.926 183.894 304.726 185.894 305.626C186.794 305.326 188.394 305.526 189.894 305.426C194.594 306.126 199.394 304.226 202.794 301.426C206.294 298.626 208.394 295.126 210.594 291.926C210.994 289.926 211.294 288.426 211.494 286.826C211.694 285.326 211.594 283.326 211.394 281.926C211.194 280.626 212.194 280.726 212.294 279.826C210.494 279.626 211.394 277.226 212.094 276.526C211.094 276.626 210.894 275.526 210.594 274.626C211.094 272.626 210.994 270.026 211.494 267.926C210.494 267.626 211.094 267.326 211.094 266.326C210.494 266.026 210.294 265.026 210.294 263.826C210.294 263.726 210.294 263.626 210.294 263.526L211.194 262.226C211.294 259.626 210.694 258.426 211.494 256.426C210.894 256.426 211.194 255.026 210.694 254.826C211.194 251.426 209.594 249.326 210.094 246.226C209.794 246.126 209.694 245.926 209.494 245.626C209.694 245.626 209.794 245.526 209.994 245.526C210.494 246.326 211.794 246.626 212.194 247.426C213.694 247.826 215.094 247.926 216.294 247.526C216.894 247.926 217.194 248.726 217.994 248.926C218.494 248.326 218.794 249.026 219.294 249.226C219.494 248.526 219.694 247.826 220.494 247.826C221.794 247.826 222.894 248.426 223.894 249.226C224.994 248.626 225.194 247.326 226.094 246.726C226.794 246.626 227.594 246.126 228.194 246.426C229.094 246.126 228.194 245.026 228.994 244.726C229.894 245.226 230.694 244.126 231.594 244.426C232.294 244.026 231.394 243.226 232.294 242.926C232.794 242.726 232.994 241.626 233.594 242.026C234.194 241.726 233.194 240.326 234.294 240.626C234.194 240.026 234.094 239.426 234.794 238.826C236.694 238.926 236.494 236.626 237.094 235.026C238.094 234.126 238.094 233.726 238.294 232.226C239.294 231.226 239.294 230.426 240.094 228.826C238.494 226.626 240.694 224.926 239.094 223.826C239.494 223.726 239.794 223.526 239.894 223.326C240.494 223.426 241.094 223.426 241.694 223.326C242.194 223.726 242.294 224.626 242.994 225.026C243.494 224.426 243.694 225.226 244.194 225.526C244.494 224.826 244.794 224.326 245.494 224.326C246.694 224.626 247.594 225.326 248.394 226.326C249.494 225.926 249.794 224.726 250.794 224.326C251.494 224.426 252.194 224.126 252.794 224.526C253.694 224.426 252.994 223.226 253.794 223.126C254.494 223.826 255.494 223.026 256.294 223.526C257.094 223.326 256.294 222.426 257.194 222.226C257.694 222.126 258.094 221.126 258.594 221.726C259.194 221.526 258.494 219.926 259.494 220.626C259.494 220.026 259.494 219.426 260.294 219.026C262.094 219.626 262.294 217.426 263.194 216.226C264.294 215.726 264.494 215.326 264.894 214.026C266.094 213.426 266.294 212.626 267.394 211.526C266.394 209.426 269.194 207.526 267.794 205.826C269.694 205.526 268.594 202.726 267.994 202.426C268.094 201.926 268.494 201.526 268.894 201.226C267.494 200.926 268.594 200.026 268.394 199.226C268.594 198.726 267.494 198.926 267.694 198.426C268.294 197.926 268.594 197.226 269.194 196.726C268.694 196.726 268.894 196.426 269.194 196.226C268.894 196.126 268.794 195.926 268.594 195.726C268.894 195.626 269.094 195.526 269.394 195.426L270.494 195.726C270.594 195.626 270.694 195.426 270.894 195.326C273.294 194.826 273.994 194.226 276.194 192.326C277.494 192.126 277.594 191.826 277.994 191.326C278.194 191.026 278.494 191.326 278.694 191.126C279.294 190.626 280.094 189.626 281.394 188.526C281.294 188.426 281.294 188.326 281.194 188.226C281.594 187.726 282.094 187.226 282.594 186.426C283.794 185.926 283.694 185.626 284.094 185.026C284.294 184.726 284.594 184.926 284.794 184.726C285.294 184.226 285.694 182.826 286.794 181.626C287.694 181.326 288.294 180.326 288.894 179.726C287.994 178.626 288.594 177.026 288.494 175.626C290.394 174.426 290.894 171.326 291.294 168.226C291.894 167.526 292.894 167.426 292.894 166.926C293.094 166.026 292.294 165.826 292.494 164.926L292.794 162.426C293.994 160.826 293.394 159.526 293.994 157.826C293.994 157.426 293.394 157.526 293.294 157.226C294.194 156.526 293.194 155.126 292.994 154.426C293.094 154.026 293.394 153.826 293.194 153.126C293.094 152.526 292.094 152.926 292.094 152.226C292.594 149.326 291.494 146.926 290.794 143.826C290.794 142.926 291.794 142.526 291.194 141.326C291.094 140.926 290.294 141.326 290.294 140.626C289.494 138.026 289.094 137.126 287.994 134.926C288.394 132.426 286.894 131.226 286.694 128.726C286.194 128.026 285.794 127.226 285.194 126.526C285.894 125.226 284.494 123.226 285.194 121.926C284.494 120.926 283.794 119.426 284.794 118.426C284.494 117.626 283.594 117.826 283.194 117.226C284.394 116.226 281.794 115.026 282.394 113.526C280.994 112.726 281.194 111.826 280.694 110.526C279.894 109.726 278.694 107.626 278.794 106.426C278.194 106.226 277.794 105.526 277.294 104.926C276.294 100.226 271.994 96.9261 271.894 92.8261C270.494 91.3261 270.394 90.0261 269.094 88.3261C268.494 87.6261 269.494 87.2261 269.294 86.6261C267.694 87.2261 267.794 85.4261 268.194 84.6261C267.294 85.1261 266.894 84.5261 266.294 84.0261C266.194 82.5261 265.394 80.9261 265.194 79.5261C264.194 79.8261 264.694 79.3261 264.294 78.7261C263.594 78.8261 263.094 78.1261 262.694 77.4261C262.794 77.0261 262.994 76.6261 263.094 76.2261C262.394 74.5261 261.494 74.1261 261.594 72.5261C261.094 72.8261 260.894 71.8261 260.394 71.9261C259.794 69.6261 257.794 69.1261 257.194 66.9261C256.794 67.0261 256.394 67.0261 256.194 66.6261C254.494 64.1261 253.594 62.6261 252.594 60.7261C252.294 60.2261 251.694 60.4261 251.494 59.6261C251.394 58.5261 250.194 57.4261 249.894 56.3261C249.694 55.7261 250.094 55.3261 249.794 54.8261C249.494 54.4261 248.694 55.2261 248.494 54.6261C248.294 53.1261 246.894 52.4261 247.094 50.6261C246.594 50.6261 246.194 50.3261 245.894 49.7261C245.894 47.8261 243.894 45.8261 243.594 43.8261C243.594 43.4261 243.894 43.2261 243.894 42.8261C243.994 42.4261 243.394 41.8261 244.094 41.6261C242.194 40.2261 242.694 36.9261 241.394 34.8261C242.094 33.5261 240.694 31.3261 241.494 29.9261C240.794 28.7261 241.594 29.2261 241.494 27.8261H241.594L241.494 27.7261C241.494 27.4261 241.394 27.0261 241.194 26.5261C241.094 25.8261 241.094 25.2261 241.094 24.9261C241.094 24.7261 240.694 24.7261 240.694 24.4261C240.694 23.9261 240.994 23.7261 240.194 22.9261C240.094 20.7261 240.294 19.9261 239.394 18.1261C239.394 17.9261 239.494 17.8261 239.594 17.6261L238.894 17.0261L238.694 15.6261L238.194 14.2261L228.494 15.4261C228.194 17.4261 228.694 19.9261 226.694 20.8261C227.094 21.3261 227.194 22.1261 227.494 22.7261C226.894 24.7261 227.194 27.5261 227.294 29.2261C228.294 28.7261 228.194 29.5261 228.694 29.6261C228.794 29.8261 228.694 30.0261 228.694 30.1261C228.594 30.2261 228.594 30.3261 228.594 30.3261C228.594 30.9261 230.294 32.5261 230.294 33.3261C230.194 34.7261 230.794 35.1261 230.794 36.1261C230.794 37.1261 231.394 38.0261 230.994 39.1261C231.594 39.2261 231.894 39.9261 232.394 40.2261C232.094 42.3261 233.794 43.7261 233.194 45.5261C234.094 45.5261 234.394 46.7261 234.794 47.7261C234.494 48.5261 234.694 49.5261 234.094 50.2261C234.694 50.8261 235.594 50.8261 236.194 51.5261C236.094 52.6261 236.994 53.8261 236.694 54.8261C237.494 56.3261 238.394 57.7261 239.494 58.6261C239.594 59.4261 238.994 60.2261 239.294 61.0261C240.094 61.1261 239.594 61.8261 239.794 62.4261C240.594 62.2261 241.294 62.2261 241.694 63.0261C242.294 64.4261 242.294 65.8261 241.894 67.1261C242.894 68.0261 244.194 68.0261 245.094 68.8261C245.294 69.5261 245.894 70.3261 245.794 71.0261C246.194 71.9261 247.194 70.9261 247.494 71.8261C247.094 72.7261 248.094 73.7261 247.694 74.6261C247.994 75.4261 248.894 74.6261 249.094 75.6261C249.194 76.1261 250.294 76.7261 249.694 77.1261C249.894 77.8261 251.594 77.3261 250.894 78.3261C251.494 78.5261 252.094 78.6261 252.494 79.6261C251.594 81.4261 253.794 82.2261 254.794 83.9261C254.894 85.3261 255.194 85.6261 256.194 86.9261C256.194 88.4261 256.694 89.1261 256.894 90.8261C259.294 91.7261 258.494 95.3261 260.594 96.2261C259.194 97.5261 261.394 99.5261 262.294 100.226C262.594 101.026 262.494 101.726 262.294 102.326C263.794 102.326 263.294 104.026 264.094 105.026C264.294 105.926 265.194 105.126 265.294 105.926C265.094 106.926 265.194 108.026 264.994 109.026C265.494 108.826 265.494 109.426 265.294 109.726C266.294 109.926 266.894 110.926 267.694 111.626C267.194 112.526 269.194 114.126 268.594 115.126C268.694 116.026 269.694 115.226 269.794 116.126C269.794 119.026 272.194 121.626 273.794 124.626C273.894 125.126 272.694 125.326 273.294 126.026C273.894 126.326 274.394 126.826 274.894 127.426C274.694 128.926 276.094 130.826 275.194 132.126C275.994 132.026 275.794 133.526 276.194 134.026C276.294 134.526 275.794 134.926 275.594 135.326C276.094 135.426 276.294 136.026 276.694 136.326C276.194 137.526 276.394 139.126 277.394 139.726C276.394 140.226 277.994 141.326 277.094 142.226C277.894 143.026 277.894 144.426 277.894 145.426C279.694 146.926 278.894 149.226 279.994 151.126C279.194 151.526 278.994 152.226 278.794 152.826C279.994 152.826 279.494 154.226 279.994 154.826C279.494 155.126 279.594 155.826 278.594 155.826C279.194 157.026 279.294 157.726 279.194 159.726C279.194 160.226 280.294 160.026 280.094 160.526C279.094 161.326 278.694 162.526 278.394 163.926C278.594 165.026 279.794 165.626 279.794 166.926C279.194 167.426 279.194 168.126 279.194 168.226C279.094 168.526 278.494 168.326 278.394 168.526C278.194 168.826 278.594 169.126 278.494 169.326C278.094 170.526 277.494 171.226 276.994 172.526C275.794 172.526 276.394 174.026 275.394 173.726C274.994 174.226 275.694 174.726 275.294 175.226C274.794 175.026 274.694 175.726 273.894 174.926C273.494 176.126 272.294 177.726 271.894 179.226V179.326C271.694 179.426 271.494 179.526 271.294 179.626C271.094 179.626 270.894 179.626 270.494 179.126C269.794 180.126 268.294 181.426 267.494 182.926C267.194 182.926 266.894 183.026 266.694 183.126C266.794 182.426 266.694 181.726 267.494 181.326C266.694 181.226 267.294 180.426 266.994 180.026C267.094 179.726 267.594 179.526 267.894 179.326C267.394 179.226 267.394 178.826 267.194 178.526C267.994 177.926 268.094 176.826 267.294 176.326C268.394 176.126 267.094 175.226 268.194 174.826C267.594 174.226 267.794 173.326 267.994 172.726C266.494 171.626 267.494 170.126 266.594 168.826C267.394 168.526 267.594 168.126 267.794 167.626C266.594 167.626 267.194 166.626 266.694 166.226C267.194 166.026 266.994 165.526 267.994 165.526C267.294 164.726 267.194 164.326 267.094 162.926C266.994 162.626 265.994 162.926 266.094 162.526C266.894 161.826 267.194 161.026 267.194 160.026C266.794 159.326 265.394 159.126 264.994 158.326C265.494 157.926 265.294 157.426 265.194 157.326C265.194 157.126 265.794 157.026 265.794 156.926C265.894 156.726 265.394 156.626 265.394 156.426C265.294 155.526 265.594 154.926 265.494 153.926C266.594 153.426 265.294 152.726 266.394 152.526C266.394 152.026 265.594 152.026 265.594 151.626C266.094 151.526 265.794 151.126 266.894 151.226C266.594 150.326 266.494 148.826 265.594 147.726H265.694L265.594 147.626C265.694 147.426 265.694 147.226 265.794 147.126C265.894 147.026 266.094 146.826 266.694 146.926C266.394 145.926 266.294 144.426 265.394 143.326C265.594 142.926 265.594 142.426 265.994 142.126C263.894 141.826 263.994 140.326 263.394 139.126L253.594 139.626L253.294 140.526V141.426L252.694 141.926C252.794 142.026 252.894 142.026 252.894 142.126C252.294 143.326 252.494 143.726 252.794 145.126C252.194 145.726 252.494 145.826 252.594 146.126C252.694 146.326 252.294 146.326 252.294 146.426C252.294 146.826 252.594 147.426 252.494 148.226C252.594 148.226 252.694 148.226 252.794 148.226C252.894 148.526 252.994 148.926 253.094 149.326C252.494 149.926 252.794 150.026 252.894 150.326C252.994 150.526 252.594 150.526 252.594 150.626C252.594 151.026 252.894 151.626 252.794 152.426C252.294 152.826 252.294 153.426 251.894 153.826C253.194 154.026 253.394 154.926 254.094 155.526C252.694 156.526 253.494 158.026 253.794 159.726C253.394 160.226 252.494 160.326 252.494 160.626C252.494 161.126 253.294 161.126 253.294 161.526L253.394 162.826C252.494 163.826 253.094 164.426 252.594 165.326C252.594 165.526 253.194 165.426 253.294 165.626C252.394 166.026 253.494 166.726 253.794 167.126C253.694 167.326 253.394 167.426 253.494 167.826C253.594 168.126 254.594 167.826 254.494 168.226C253.994 169.726 254.694 171.126 254.894 172.826C254.694 173.326 253.694 173.526 253.994 174.226C254.094 174.526 254.894 174.326 254.694 174.726C254.994 176.226 255.094 176.826 255.694 178.126C254.794 179.526 255.794 180.326 255.394 181.826C255.694 182.226 255.894 182.826 256.194 183.226C255.094 183.826 255.794 185.226 254.794 185.826C255.194 186.526 255.294 187.526 253.994 187.826C254.094 188.326 254.894 188.326 255.094 188.726C253.694 189.126 255.694 190.226 254.594 190.926C255.594 191.626 255.094 192.126 255.094 192.926C255.594 193.526 255.894 194.926 255.394 195.526C255.894 195.726 255.994 196.226 256.194 196.626C255.294 199.326 257.894 202.326 256.194 204.226C256.794 204.926 256.294 205.326 256.494 206.226C256.594 206.626 255.594 206.326 255.494 206.526C257.194 207.026 255.994 207.426 255.294 207.226C256.294 207.526 256.294 207.826 256.394 208.226C255.694 208.426 255.294 209.026 254.494 209.126C255.294 209.726 254.694 209.526 254.594 209.626C255.094 210.126 254.894 210.426 254.694 210.626C254.394 210.526 254.094 210.326 253.794 210.226C253.194 210.526 253.294 211.126 252.394 210.726C252.794 211.226 252.294 211.126 252.494 211.526C251.494 211.426 251.694 212.926 250.694 212.726C250.794 213.126 250.794 213.426 250.594 213.426C249.494 213.926 248.794 213.926 247.894 213.826C247.594 213.826 247.594 214.426 247.194 214.226C246.794 213.626 246.094 214.226 245.694 213.826C245.494 213.626 245.494 213.126 245.294 213.126C245.094 213.126 244.994 214.226 244.794 214.026C244.394 213.426 243.494 214.126 243.294 212.926C242.994 213.326 242.694 213.526 242.494 213.326C242.294 212.226 240.694 212.526 240.394 211.626C240.394 211.426 240.594 211.126 240.594 210.926C240.594 210.626 240.094 210.726 240.794 210.226C239.294 210.426 239.694 208.826 238.894 208.226C238.894 208.126 238.894 208.026 238.894 207.926C239.294 207.226 238.594 206.626 239.394 206.026C238.894 205.526 239.594 205.926 239.694 205.026H239.794L239.694 204.926C239.694 204.726 239.594 204.426 239.494 204.126C239.494 203.726 239.494 203.326 239.494 203.026C239.494 202.926 239.094 202.926 239.094 202.726C239.094 202.426 239.394 202.226 238.694 201.826C238.694 200.426 238.894 199.926 238.094 198.926C238.094 198.826 238.194 198.726 238.294 198.626H238.194C238.294 198.526 238.294 198.326 238.494 198.226C237.694 198.126 238.294 197.226 237.994 196.826C238.094 196.426 238.594 196.326 238.894 196.026C238.394 195.926 238.394 195.526 238.194 195.126C238.994 194.426 239.094 193.326 238.294 192.826C239.394 192.626 238.094 191.626 239.194 191.126C238.594 190.526 238.794 189.526 238.994 188.826C237.494 187.626 238.494 186.026 237.594 184.626C238.394 184.326 238.594 183.826 238.794 183.326C237.594 183.326 238.194 182.226 237.694 181.726C238.194 181.526 237.994 180.926 238.994 180.926C238.294 180.126 238.194 179.626 238.094 178.126C237.994 177.826 236.994 178.026 236.994 177.626C237.794 176.926 238.094 175.926 238.094 174.826C237.594 174.026 236.294 173.826 235.894 173.026C236.394 172.526 236.094 172.026 236.094 171.926C236.094 171.726 236.694 171.626 236.694 171.526C236.794 171.226 236.294 171.126 236.294 171.026C236.194 170.126 236.494 169.426 236.394 168.326C237.494 167.826 236.194 167.026 237.294 166.826C237.294 166.326 236.494 166.326 236.494 165.826C236.994 165.726 236.694 165.226 237.794 165.426C237.494 164.426 237.394 162.726 236.494 161.626H236.594L236.494 161.526C236.594 161.326 236.594 161.126 236.694 160.926C236.794 160.826 236.994 160.626 237.594 160.726C237.294 159.726 237.194 158.026 236.194 156.826C236.394 156.426 236.394 155.926 236.794 155.526C234.694 155.226 234.794 153.526 234.194 152.326L224.394 152.826L224.094 153.826V154.726L223.494 155.226C223.594 155.326 223.694 155.426 223.694 155.526C223.094 156.826 223.294 157.226 223.694 158.726C223.094 159.426 223.394 159.526 223.494 159.826C223.594 160.026 223.194 160.026 223.194 160.226C223.194 160.626 223.494 161.326 223.394 162.226C223.494 162.226 223.594 162.226 223.694 162.226C223.794 162.526 223.894 162.926 223.994 163.426C223.394 164.126 223.694 164.226 223.794 164.526C223.894 164.726 223.494 164.726 223.494 164.926C223.494 165.326 223.794 166.026 223.694 166.926C223.194 167.326 223.194 167.926 222.794 168.426C224.094 168.726 224.294 169.626 224.994 170.226C223.594 171.326 224.394 172.926 224.694 174.726C224.294 175.226 223.394 175.426 223.394 175.726C223.394 176.226 224.194 176.226 224.194 176.726L224.294 178.126C223.394 179.126 224.094 179.826 223.494 180.826C223.494 181.026 224.094 180.926 224.194 181.126C223.294 181.526 224.394 182.326 224.694 182.726C224.594 182.926 224.294 183.126 224.394 183.426C224.494 183.726 225.494 183.526 225.394 183.926C224.894 185.626 225.594 187.026 225.894 188.926C225.694 189.526 224.694 189.626 224.994 190.426C225.094 190.726 225.894 190.526 225.694 190.926C225.994 192.526 226.094 193.226 226.694 194.626C225.794 196.126 226.794 197.026 226.394 198.626C226.594 198.926 226.794 199.326 226.894 199.626C226.694 200.426 226.394 201.026 225.194 201.426C225.594 201.726 225.694 202.126 225.994 202.526C225.894 202.626 225.894 202.826 225.794 202.926C225.594 203.526 225.494 204.226 225.394 204.826C225.294 204.926 225.194 205.026 224.994 205.026C224.994 205.226 225.194 205.326 225.394 205.426C225.394 205.626 225.394 205.926 225.394 206.126C225.794 206.026 225.994 206.026 226.094 206.026C224.694 206.426 226.694 207.626 225.594 208.426C226.594 209.126 226.094 209.726 226.094 210.526C226.594 211.126 226.894 212.726 226.394 213.426C226.894 213.626 226.994 214.226 227.194 214.626C226.294 217.626 228.894 220.626 227.294 223.126C227.894 224.326 227.494 225.126 227.894 226.526C228.094 227.026 227.094 227.126 226.994 227.426C228.694 227.426 227.794 228.126 227.094 228.226C228.194 228.226 228.194 228.626 228.394 228.926C227.794 229.426 227.494 230.126 226.794 230.426C227.694 230.826 227.094 230.726 226.994 230.926C227.594 231.226 227.594 231.626 227.294 231.926C226.994 231.926 226.594 231.826 226.294 231.826C225.794 232.226 226.094 232.926 224.994 232.726C225.494 233.126 224.994 233.126 225.294 233.526C224.194 233.626 224.794 235.226 223.694 235.126C223.894 235.526 223.994 235.826 223.794 235.926C222.794 236.726 221.994 236.826 220.994 236.926C220.694 237.026 220.794 237.626 220.394 237.426C219.894 237.026 219.194 237.526 218.694 237.326C218.394 237.226 218.394 236.626 218.094 236.626C217.894 236.626 217.994 237.726 217.694 237.626C217.094 237.026 216.294 237.926 215.894 236.726C215.694 237.226 215.394 237.326 215.094 237.226C214.694 236.226 213.094 236.626 212.494 235.626C212.394 235.426 212.594 235.126 212.594 234.926C212.594 234.626 212.094 234.726 212.694 234.126C211.094 234.526 211.394 232.526 210.394 232.026C210.994 231.226 209.994 230.526 210.794 229.826C210.194 229.426 210.994 229.526 211.094 228.926H211.194H211.094C211.094 228.926 210.994 228.526 210.894 228.226C210.894 227.726 210.894 227.326 210.894 227.026C210.894 226.926 210.494 226.926 210.494 226.726C210.494 226.426 210.794 226.226 210.094 225.726C210.094 224.126 210.294 223.726 209.394 222.526C209.394 222.426 209.494 222.326 209.594 222.226L208.894 221.826L208.794 220.926L208.294 220.026L207.594 220.126C207.494 219.026 207.394 217.926 207.894 216.626C207.394 216.326 207.094 215.626 207.094 214.626C207.794 211.926 206.394 207.826 206.694 204.726C206.794 204.126 207.094 203.926 207.294 203.426C207.494 202.826 206.994 201.626 207.794 201.726C206.294 198.726 207.594 193.926 206.694 190.226C207.594 188.426 206.594 184.626 207.494 182.726C206.894 180.626 207.694 181.726 207.794 179.426H207.894L207.794 179.226C207.794 178.726 207.694 178.126 207.594 177.326C207.594 176.226 207.594 175.226 207.594 174.726C207.594 174.426 207.194 174.326 207.194 173.926C207.294 173.126 207.494 172.826 206.794 171.426C206.894 167.826 207.094 166.926 206.194 164.026C206.194 163.726 206.294 163.526 206.394 163.326L205.694 162.326L205.594 160.226L205.094 158.026L195.294 158.526C195.294 158.826 195.294 159.026 195.194 159.326C194.894 162.126 194.994 165.426 193.194 166.326C193.594 167.126 193.694 168.226 193.994 169.226C193.294 172.026 193.394 175.826 193.294 178.326C194.294 177.826 194.094 178.926 194.694 179.126C194.694 179.426 194.694 179.626 194.594 179.826C194.494 179.926 194.494 180.026 194.494 180.126C194.494 180.926 195.894 183.626 195.794 184.626C195.494 186.626 195.994 187.326 195.794 188.626C195.594 190.026 195.994 191.426 195.394 192.826C195.994 193.126 196.094 194.226 196.494 194.826C195.794 197.526 196.994 200.226 195.994 202.326C196.894 202.726 196.794 204.526 196.894 205.926C196.294 206.926 196.294 208.326 195.394 208.926C195.794 210.026 196.694 210.426 196.894 211.726C196.494 213.126 196.794 215.226 196.194 216.326C196.394 218.726 196.794 220.926 197.294 222.826C197.094 223.626 196.694 224.226 196.394 225.026C196.294 225.226 196.194 225.426 196.194 225.826C196.894 226.526 196.094 227.026 195.994 227.926C196.294 228.026 196.494 228.226 196.694 228.326C196.694 229.026 196.694 229.726 196.594 230.226C197.094 230.026 197.294 230.126 197.394 230.126C197.294 232.126 196.694 233.726 195.794 234.826C196.194 236.626 197.394 237.426 197.794 239.226C197.694 240.326 197.794 241.826 197.394 242.526C197.294 244.026 198.694 243.426 198.594 244.926C197.794 245.726 198.294 247.826 197.494 248.726C197.394 250.026 198.594 249.526 198.294 251.126C198.194 251.826 198.894 253.526 198.094 253.626C197.894 254.626 199.694 255.226 198.594 256.026C199.094 256.626 199.594 257.326 199.494 258.826C197.994 260.526 199.494 263.326 199.694 266.226C199.194 268.226 199.294 268.826 199.694 271.226C199.094 273.226 199.294 274.526 198.794 277.126C200.594 279.826 198.694 284.826 199.894 285.826C198.094 286.026 198.594 288.326 198.294 289.426C197.794 290.026 197.194 290.126 196.494 290.126C197.094 291.526 195.394 291.526 194.594 292.126C193.894 292.226 194.594 293.126 193.794 293.326C192.794 293.026 191.894 292.826 191.194 292.326C191.194 292.826 190.694 292.626 190.594 292.426C190.094 293.326 189.094 293.326 188.194 293.526C187.894 292.626 185.594 292.926 185.594 291.726C185.194 291.126 184.694 292.226 184.194 291.526C183.694 290.226 182.894 289.326 182.094 288.026C181.194 286.726 180.694 285.626 180.294 282.626C180.394 281.826 181.594 282.126 181.094 280.826C180.494 280.126 180.094 279.126 179.794 278.026C180.294 275.926 179.394 272.426 180.394 270.926C179.594 270.726 179.994 268.626 179.694 267.726C179.694 266.926 180.294 266.526 180.494 265.926C179.994 265.626 179.894 264.626 179.594 263.926C180.294 262.326 180.294 259.726 179.394 258.526C180.494 258.026 178.994 255.826 179.994 254.726C179.294 253.326 179.294 251.026 179.494 249.426C177.794 246.626 178.594 242.926 177.494 239.726C178.294 239.126 178.394 237.926 178.494 236.726C177.294 236.726 177.694 234.126 177.094 233.126C177.494 232.626 177.294 231.326 178.294 231.326C177.394 229.426 177.294 228.226 176.994 224.826C176.894 224.026 175.894 224.626 175.894 223.726C176.594 222.026 176.794 219.926 176.594 217.426C175.994 215.626 174.594 215.126 174.194 213.126C174.594 212.126 174.294 210.826 174.294 210.626C174.194 210.126 174.894 210.026 174.894 209.726C174.894 209.126 174.494 208.926 174.394 208.526C174.194 206.426 174.394 204.826 174.094 202.326C175.094 201.226 173.694 199.426 174.794 198.926C174.794 197.726 173.894 197.726 173.894 196.526C174.394 196.326 174.094 195.226 175.094 195.526C174.594 193.126 174.294 189.426 173.194 186.726H173.294L173.194 186.526L173.294 185.226C173.394 184.926 173.494 184.526 174.194 184.826C173.694 182.426 173.394 178.526 172.294 175.926C172.394 174.926 172.394 173.826 172.694 173.026C170.494 172.226 170.394 168.426 169.594 165.526L165.194 165.926L159.894 166.326L159.694 168.626L159.894 170.726L159.294 171.826C159.394 172.026 159.494 172.226 159.594 172.426C159.194 175.426 159.494 176.326 159.994 179.826C159.494 181.326 159.794 181.526 159.894 182.326C159.994 182.726 159.594 182.826 159.694 183.226C159.794 184.126 160.194 185.726 160.194 187.726C160.294 187.726 160.394 187.726 160.494 187.726C160.594 188.526 160.794 189.326 160.894 190.526C160.394 192.026 160.694 192.226 160.794 193.026C160.794 193.226 160.794 193.326 160.694 193.426C160.394 193.126 160.194 192.926 159.994 192.526C159.894 192.626 159.794 192.626 159.694 192.726C159.294 192.326 158.894 192.026 158.394 191.426C158.294 190.326 157.994 190.326 157.694 190.026C157.494 189.826 157.794 189.626 157.594 189.426C157.294 188.926 156.394 188.326 155.794 187.126C155.994 186.326 155.394 185.626 155.394 184.826C153.994 185.126 153.194 184.126 152.094 183.526C152.494 181.526 150.794 179.726 149.294 177.526C149.394 176.726 150.094 176.126 149.894 175.726C149.694 175.026 148.894 175.326 148.594 174.626L147.694 172.726C147.994 171.126 147.194 170.226 147.194 168.726C147.094 168.426 146.594 168.726 146.394 168.426C147.094 167.626 145.694 166.826 145.294 166.326C145.294 165.926 145.594 165.726 145.294 165.226C145.094 164.726 144.194 165.326 144.094 164.726C143.994 162.326 143.094 160.326 142.594 157.526C142.694 156.726 143.694 156.426 143.294 155.326C143.194 154.926 142.394 155.226 142.594 154.626C142.294 152.226 142.094 151.326 141.594 149.126C142.694 147.026 141.694 145.426 142.394 143.126C142.194 142.326 142.094 141.426 141.894 140.626C143.094 139.826 142.694 137.426 143.894 136.626C143.694 135.426 143.894 133.726 145.294 133.426C145.394 132.626 144.594 132.426 144.494 131.626C145.994 131.426 144.394 129.026 145.594 128.126C144.894 126.726 145.494 126.126 145.794 124.726C145.494 123.626 145.794 121.226 146.594 120.326C146.194 119.826 146.294 119.026 146.294 118.226C148.294 113.826 146.994 108.626 149.694 105.426C149.594 103.326 150.394 102.326 150.594 100.126C150.694 99.2261 151.594 99.6261 151.894 99.0261C150.294 98.4261 151.594 97.1261 152.394 96.8261C151.394 96.6261 151.494 95.8261 151.394 95.1261C152.294 93.9261 152.894 92.2261 153.794 91.0261C152.894 90.5261 153.494 90.5261 153.794 89.8261C153.194 89.4261 153.394 88.6261 153.694 87.7261L154.894 87.1261C155.694 85.5261 155.294 84.5261 156.594 83.5261C155.994 83.3261 156.694 82.5261 156.294 82.2261C157.594 80.2261 156.694 78.3261 157.894 76.5261C157.494 76.3261 157.394 76.0261 157.494 75.5261C158.294 72.5261 158.994 71.0261 159.894 68.8261C160.094 68.2261 159.594 67.8261 160.094 67.1261C160.894 66.2261 160.994 64.4261 161.594 63.2261C161.894 62.6261 162.494 62.5261 162.594 61.9261C162.694 61.3261 161.594 61.4261 161.794 60.8261C162.794 59.3261 162.094 57.7261 163.494 56.3261C163.094 56.0261 162.894 55.4261 163.094 54.7261C164.294 53.0261 163.794 49.8261 164.494 47.7261C164.594 47.3261 165.094 47.2261 165.294 46.9261C165.594 46.5261 165.294 45.6261 166.094 45.8261C165.094 43.5261 166.894 40.0261 166.294 37.4261C167.394 36.2261 166.794 33.5261 167.794 32.3261C167.394 30.8261 168.094 31.6261 168.394 30.0261H168.494L168.394 29.9261C168.494 29.6261 168.494 29.1261 168.394 28.6261C168.494 27.8261 168.594 27.2261 168.694 26.8261C168.694 26.6261 168.394 26.5261 168.394 26.2261C168.494 25.7261 168.794 25.5261 168.194 24.5261C168.594 22.0261 168.894 21.4261 168.294 19.3261C168.394 19.1261 168.394 19.0261 168.494 18.9261L167.894 18.1261L167.994 16.6261L167.794 15.0261L157.994 14.3261C157.294 16.3261 157.294 19.0261 155.194 19.5261C155.494 20.1261 155.494 20.9261 155.694 21.6261C154.694 23.4261 154.494 26.1261 154.094 27.8261C155.194 27.6261 154.894 28.3261 155.394 28.5261C155.394 28.7261 155.294 28.9261 155.294 29.0261C155.194 29.1261 155.194 29.1261 155.194 29.2261C155.094 29.8261 156.294 31.8261 155.994 32.5261C155.494 33.8261 155.894 34.4261 155.594 35.3261C155.294 36.3261 155.494 37.3261 154.794 38.1261C155.394 38.4261 155.394 39.1261 155.694 39.6261C154.694 41.3261 155.594 43.2261 154.394 44.4261C155.194 44.8261 154.894 45.9261 154.794 46.9261C154.094 47.4261 153.894 48.4261 152.894 48.5261C153.094 49.3261 153.894 49.7261 153.894 50.6261C153.294 51.4261 153.194 52.8261 152.394 53.3261C152.194 54.9261 151.994 56.3261 152.094 57.7261C151.594 58.3261 150.694 58.4261 150.294 59.2261C150.794 59.8261 149.994 59.9261 149.594 60.4261C150.194 60.8261 150.694 61.3261 150.494 62.1261C149.894 63.4261 148.794 64.2261 147.594 64.7261C147.494 66.0261 148.394 66.9261 148.294 68.3261C147.894 69.0261 147.594 70.0261 146.994 70.3261C146.494 71.2261 147.894 71.3261 147.494 72.3261C146.494 72.5261 146.394 74.1261 145.494 74.4261C145.094 75.2261 146.294 75.3261 145.694 76.3261C145.394 76.7261 145.594 78.1261 144.894 77.9261C144.494 78.5261 145.994 79.5261 144.694 79.7261C144.994 80.3261 145.294 80.9261 144.794 81.8261C142.894 82.4261 143.694 84.8261 143.094 86.7261C142.194 87.8261 142.094 88.3261 141.894 90.0261C140.794 91.1261 140.694 92.1261 139.594 93.6261C140.694 96.1261 137.594 98.3261 138.594 100.626C136.694 100.726 136.994 103.926 137.194 105.126C136.894 105.926 136.394 106.426 135.794 106.926C136.994 107.926 135.494 109.026 135.394 110.426C134.994 111.226 136.194 111.126 135.794 112.026C134.994 112.726 134.394 113.826 133.594 114.526C134.094 114.726 133.694 115.226 133.394 115.426C133.994 116.226 133.994 117.526 134.194 118.526C133.194 119.026 133.894 121.626 132.894 122.126C132.494 123.026 133.694 122.826 133.294 123.726C131.594 126.326 132.294 130.326 132.194 134.026C131.994 134.526 130.894 134.126 131.094 135.126C131.494 135.726 131.794 136.526 131.894 137.326C130.994 138.726 131.394 141.326 130.194 142.326C130.894 142.626 130.194 144.026 130.394 144.726C130.294 145.326 129.694 145.526 129.394 145.926C129.894 146.226 129.894 146.926 130.094 147.426C129.294 148.526 128.894 150.426 129.794 151.426C128.694 151.726 130.094 153.426 128.994 154.326C129.694 155.426 129.494 157.226 129.394 158.426C131.194 160.426 130.394 163.426 131.794 165.726C131.094 166.326 131.094 167.226 131.094 168.226C132.294 168.026 132.094 170.026 132.794 170.726C132.394 171.226 132.894 172.126 131.894 172.326C133.094 173.626 133.394 174.426 134.294 176.826C134.494 177.326 135.394 176.626 135.594 177.326C135.294 178.726 135.594 180.326 136.294 182.126C137.194 183.226 138.694 183.026 139.694 184.226C139.594 185.126 140.194 185.826 140.294 186.026C140.494 186.326 139.894 186.726 139.994 186.926C140.094 187.326 140.594 187.326 140.794 187.526C141.694 188.826 141.994 190.026 142.994 191.626C142.494 192.826 144.294 193.326 143.594 194.226C144.094 195.026 144.794 194.526 145.194 195.326C144.894 195.726 145.494 196.326 144.494 196.626C145.794 197.926 147.494 200.226 149.494 201.226H149.394L149.594 201.326C149.694 201.626 149.894 201.926 150.094 202.226C150.194 202.526 150.194 202.826 149.594 203.026C150.994 204.226 152.994 206.426 155.094 207.226C155.394 207.926 155.994 208.526 156.194 209.226C158.094 208.226 159.894 210.026 162.094 211.126C162.294 212.826 162.694 214.726 162.894 216.726C162.494 217.826 161.694 218.226 161.794 218.926C161.794 220.126 162.694 220.126 162.694 221.326L162.994 224.626C162.294 226.926 162.994 228.626 162.594 230.926C162.694 231.426 163.194 231.226 163.394 231.626C162.594 232.626 163.794 234.426 164.094 235.226C164.094 235.826 163.694 236.026 163.894 236.926C163.994 237.726 164.994 237.126 164.994 238.026C164.694 241.826 165.694 245.126 166.194 249.526C166.094 250.826 165.094 251.126 165.494 252.926C165.594 253.526 166.394 253.126 166.294 254.126C166.894 257.826 166.994 259.326 167.794 262.626C167.494 263.826 167.594 264.826 167.594 265.826C168.294 267.726 168.694 269.526 168.594 271.826Z" fill="black"/>
</svg>
